# xmcd
#
# Track frame offsets: 
#        150
#        33510
#        65020
#        90935
#        107195
#        120455
#        136575
#        160475
#        183635
#        198420
#        216930
#
# Disc length: 3062 seconds
#
# Revision: 0
# Processed by: cddbd v1.5.2PL0 Copyright (c) Steve Scherf et al.
# Submitted via: ExactAudioCopy v0.99pb4
#
DISCID=9a0bf40b
DTITLE=Alvaro Assmar - Standards
DYEAR=1994
DGENRE=Blues
TTITLE0=Stormy Monday
TTITLE1=Driftin' Blues
TTITLE2=The Sky Is Crying
TTITLE3=You Don't Love Me
TTITLE4=Steppin' Out
TTITLE5=Crossroads
TTITLE6=Rambling on My Mind
TTITLE7=Love in Vain
TTITLE8=I'm King Bee
TTITLE9=Samba Reggae Blues
TTITLE10=Leave My Girl Alone
EXTD=
EXTT0=
EXTT1=
EXTT2=
EXTT3=
EXTT4=
EXTT5=
EXTT6=
EXTT7=
EXTT8=
EXTT9=
EXTT10=
PLAYORDER=
